<svg width="461" height="93" viewBox="0 0 461 93" fill="none" xmlns="http://www.w3.org/2000/svg">
<path d="M10.3755 92.024C4.06083 92.024 0.903501 89.1653 0.903501 83.448V8.56799C0.903501 5.58133 1.62883 3.40533 3.0795 2.03999C4.53017 0.674662 6.83417 -0.00800323 9.9915 -0.00800323C16.2208 -0.00800323 19.3355 2.85066 19.3355 8.56799V21.368C19.3355 31.9493 19.0368 38.264 18.4395 40.312C20.6582 38.0933 23.0475 36.5573 25.6075 35.704C28.1675 34.8507 31.5382 34.424 35.7195 34.424H48.2635V8.56799C48.2635 5.58133 48.9888 3.40533 50.4395 2.03999C51.8902 0.674662 54.1942 -0.00800323 57.3515 -0.00800323C63.5808 -0.00800323 66.6955 2.85066 66.6955 8.56799V83.448C66.6955 86.3493 65.9702 88.5253 64.5195 89.976C63.1542 91.3413 60.8928 92.024 57.7355 92.024C51.4208 92.024 48.2635 89.1653 48.2635 83.448V45.56C47.7515 47.096 46.0875 48.376 43.2715 49.4C40.4555 50.3387 37.1702 50.808 33.4155 50.808C28.0395 50.808 24.3275 51.9173 22.2795 54.136C20.3168 56.2693 19.3355 60.2373 19.3355 66.04V83.448C19.3355 86.3493 18.6102 88.5253 17.1595 89.976C15.7942 91.3413 13.5328 92.024 10.3755 92.024ZM115.883 92.024C105.557 92.024 97.6638 89.464 92.2025 84.344C86.8265 79.1387 84.1385 71.3307 84.1385 60.92V9.976C84.1385 3.32 87.2105 -0.00800323 93.3545 -0.00800323C99.4985 -0.00800323 102.571 3.32 102.571 9.976V60.92C102.571 66.296 103.723 70.2213 106.027 72.696C108.416 75.1707 111.701 76.408 115.883 76.408C126.123 76.408 131.243 71.2453 131.243 60.92V9.976C131.243 3.32 134.315 -0.00800323 140.459 -0.00800323C146.603 -0.00800323 149.675 3.32 149.675 9.976V60.92C149.675 71.2453 146.816 79.0107 141.099 84.216C135.381 89.4213 126.976 92.024 115.883 92.024ZM184.446 83.448C184.446 89.1653 181.459 92.024 175.486 92.024C172.584 92.024 170.28 91.2987 168.574 89.848C166.867 88.3973 166.014 86.264 166.014 83.448V33.144C166.014 25.1227 167.08 18.7227 169.214 13.944C171.347 9.07999 174.846 5.53866 179.71 3.31999C184.574 1.10133 191.059 -0.00800323 199.166 -0.00800323C209.918 -0.00800323 218.024 2.50933 223.486 7.544C229.032 12.4933 231.806 21.0267 231.806 33.144V83.448C231.806 89.1653 228.819 92.024 222.846 92.024C219.944 92.024 217.64 91.2987 215.934 89.848C214.227 88.3973 213.374 86.264 213.374 83.448V33.144C213.374 26.8293 212.264 22.3493 210.046 19.704C207.912 16.9733 204.286 15.608 199.166 15.608C195.155 15.608 192.083 16.2053 189.95 17.4C187.816 18.5947 186.366 20.472 185.598 23.032C184.83 25.592 184.446 28.9627 184.446 33.144V83.448ZM283.702 91.896C274.486 91.896 267.147 90.1893 261.686 86.776C256.31 83.3627 252.427 78.328 250.038 71.672C247.734 64.9307 246.582 56.568 246.582 46.584C246.582 36.6 247.734 28.152 250.038 21.24C252.427 14.2427 256.31 8.952 261.686 5.368C267.147 1.784 274.486 -0.00800323 283.702 -0.00800323C287.03 -0.00800323 290.272 0.290662 293.43 0.887993C296.672 1.48533 299.318 2.552 301.366 4.088C303.499 5.624 304.566 7.84266 304.566 10.744C304.566 12.8773 303.798 14.6693 302.262 16.12C300.726 17.5707 298.251 18.296 294.838 18.296C292.96 18.296 290.87 18.0827 288.566 17.656C286.262 17.144 283.574 16.888 280.502 16.888C274.528 16.888 270.56 19.32 268.598 24.184C266.72 28.9627 265.782 36.4293 265.782 46.584C265.782 56.7387 267.019 64.0347 269.494 68.472C271.968 72.824 275.638 75 280.502 75C290.742 75 295.862 70.6907 295.862 62.072C295.862 58.1467 296.459 55.4587 297.654 54.008L288.694 54.136C286.048 54.2213 284 53.7093 282.55 52.6C281.184 51.4907 280.502 49.5707 280.502 46.84C280.502 44.1093 281.184 42.1893 282.55 41.08C284 39.9707 286.048 39.416 288.694 39.416H302.262C305.248 39.416 307.467 39.8 308.918 40.568C310.368 41.2507 311.307 42.744 311.734 45.048C312.246 47.2667 312.502 50.6373 312.502 55.16C312.502 63.096 311.691 69.7947 310.07 75.256C308.448 80.7173 305.547 84.856 301.366 87.672C297.27 90.488 291.382 91.896 283.702 91.896ZM335.361 91.768C332.459 91.768 330.155 91.128 328.449 89.848C326.742 88.4827 325.889 86.5627 325.889 84.088V28.792C325.889 18.8933 328.491 11.64 333.697 7.032C338.987 2.33866 347.222 -0.00800323 358.401 -0.00800323C367.531 -0.00800323 374.486 2.296 379.265 6.904C384.129 11.4267 386.561 17.9973 386.561 26.616C386.561 29.6027 386.475 32.504 386.305 35.32C386.134 38.0507 385.878 39.9707 385.537 41.08C384.257 45.7733 381.91 49.3573 378.497 51.832C383.105 55.672 385.409 60.1093 385.409 65.144V84.088C385.409 89.3787 382.465 92.024 376.577 92.024C373.675 92.024 371.371 91.384 369.665 90.104C367.958 88.7387 367.105 86.7333 367.105 84.088V67.192C367.105 62.584 366.379 59.3413 364.929 57.464C363.563 55.5867 360.747 54.648 356.481 54.648C351.873 54.648 348.673 55.672 346.881 57.72C345.174 59.6827 344.321 63.352 344.321 68.728V84.088C344.321 89.208 341.334 91.768 335.361 91.768ZM343.297 44.152C345.43 42.36 347.307 41.208 348.929 40.696C350.635 40.0987 353.067 39.8 356.225 39.8C360.491 39.8 363.606 39.5867 365.569 39.16C367.617 38.7333 368.939 37.8373 369.537 36.472C370.134 35.1067 370.433 32.9733 370.433 30.072C370.433 24.2693 369.537 20.2587 367.745 18.04C366.038 15.736 362.923 14.584 358.401 14.584C353.366 14.584 349.782 15.736 347.649 18.04C345.601 20.344 344.577 24.3547 344.577 30.072C344.577 32.888 344.449 35.4053 344.193 37.624C344.022 39.7573 343.723 41.9333 343.297 44.152ZM429.112 92.024C422.797 92.024 419.64 89.1653 419.64 83.448V57.976L393.016 14.328C391.48 11.6827 390.882 9.29333 391.224 7.16C391.65 5.02666 392.632 3.32 394.168 2.03999C395.789 0.674662 397.624 -0.00800323 399.672 -0.00800323C402.488 -0.00800323 404.706 0.845329 406.328 2.55199C408.034 4.25866 409.954 7.16 412.088 11.256L429.496 42.616C432.909 39.4587 435.597 36.8133 437.56 34.68C439.522 32.4613 440.93 30.3707 441.784 28.408C442.637 26.4453 443.064 24.2693 443.064 21.88C443.064 19.4907 442.808 16.8453 442.296 13.944C441.784 11.0427 441.528 8.90933 441.528 7.544C441.528 5.41066 442.424 3.61866 444.216 2.168C446.008 0.717331 448.184 -0.00800323 450.744 -0.00800323C453.816 -0.00800323 456.162 1.528 457.784 4.6C459.49 7.58666 460.344 11.9813 460.344 17.784C460.344 22.5627 459.704 27.0427 458.424 31.224C457.229 35.4053 455.01 39.6293 451.768 43.896C448.61 48.1627 444.045 52.8133 438.072 57.848V83.448C438.072 86.3493 437.346 88.5253 435.896 89.976C434.53 91.3413 432.269 92.024 429.112 92.024Z" fill="#FF8806"/>
</svg>
